<svg width="25" height="16" viewBox="0 0 25 16" fill="none" xmlns="http://www.w3.org/2000/svg">
<path d="M15.4168 2.10416H8.85425V13.8959H15.4168V2.10416Z" fill="#B7B7B7"/>
<path d="M9.27087 8.00015C9.27087 5.60431 10.3959 3.4793 12.125 2.1043C10.8542 1.10429 9.25004 0.500122 7.50003 0.500122C3.35418 0.500122 0 3.8543 0 8.00015C0 12.146 3.35418 15.5002 7.50003 15.5002C9.25004 15.5002 10.8542 14.896 12.125 13.896C10.3959 12.5418 9.27087 10.396 9.27087 8.00015Z" fill="#989898"/>
<path d="M24.271 8.00003C24.271 12.1459 20.9169 15.5001 16.771 15.5001C15.021 15.5001 13.4168 14.8959 12.146 13.8959C13.896 12.5209 15.0002 10.3959 15.0002 8.00003C15.0002 5.60419 13.8752 3.47918 12.146 2.10418C13.4168 1.10417 15.021 0.5 16.771 0.5C20.9169 0.5 24.271 3.87501 24.271 8.00003Z" fill="#BFBFBF"/>
</svg>
