<svg width="31" height="9" viewBox="0 0 31 9" fill="none" xmlns="http://www.w3.org/2000/svg">
<path fill-rule="evenodd" clip-rule="evenodd" d="M2.86667 0.00144298C3.14362 -0.000213843 3.9667 -0.074345 4.31534 1.10232C4.55019 1.89493 4.92429 3.19327 5.43764 4.99733H5.64671C6.19723 3.09536 6.57541 1.79703 6.78125 1.10232C7.13352 -0.0866019 8.0142 0.00146628 8.36648 0.00146628L11.0843 0.00146967V8.45599H8.31422V3.4736H8.12846L6.58426 8.45599H4.50009L2.95588 3.46991H2.77013V8.45599H0V0.00146967L2.86667 0.00144298ZM15.0622 0.00146967V4.98757H15.2832L17.1616 0.887535C17.5262 0.0716165 18.3033 0.00146967 18.3033 0.00146967H20.984V8.45601H18.156V3.46991H17.935L16.0935 7.56995C15.7288 8.38217 14.9149 8.45601 14.9149 8.45601H12.2342V0.00146967H15.0622ZM30.7587 4.01912C30.3643 5.13697 29.1255 5.93754 27.7539 5.93754H24.7882V8.45601H22.099V4.01912H30.7587Z" fill="#989898"/>
<path fill-rule="evenodd" clip-rule="evenodd" d="M27.8837 0.00146484H21.958C22.099 1.88373 23.72 3.49508 25.398 3.49508H30.9456C31.2658 1.93069 30.1637 0.00146484 27.8837 0.00146484Z" fill="url(#paint0_linear_2499_12168)"/>
<defs>
<linearGradient id="paint0_linear_2499_12168" x1="21.841" y1="-0.0880653" x2="31.0881" y2="-0.0880653" gradientUnits="userSpaceOnUse">
<stop stop-color="#C7C7C7"/>
<stop offset="1" stop-color="#989898"/>
</linearGradient>
</defs>
</svg>
