<svg width="137" height="22" viewBox="0 0 137 22" fill="none" xmlns="http://www.w3.org/2000/svg">
<g clip-path="url(#clip0)">
<path d="M88.9297 9.63723H85.6257V6.81444H92.7493V4.70358H82.8927V17.3418H88.579C91.7699 17.3418 93.5983 15.895 93.5983 13.3715C93.5983 10.9671 91.9501 9.63723 88.9297 9.63723ZM88.4563 15.2463H85.6257V11.7423H88.4659C90.1907 11.7423 90.9995 12.318 90.9995 13.4943C90.9995 14.6707 90.1371 15.2463 88.4563 15.2463Z" fill="#21A038"/>
<path d="M126.997 17.3257H124.235V4.68556H126.997V9.98573H128.501L132.558 4.67789H135.69L130.874 10.6977L136.464 17.3257H132.8L128.691 12.3537H126.997V17.3257Z" fill="#21A038"/>
<path d="M104.238 14.8541H98.4403L97.4553 17.2912H94.5384L99.9793 4.7489H102.896L108.241 17.2912H105.223L104.238 14.8541ZM103.325 12.5783L101.357 7.7041L99.3698 12.5783H103.325Z" fill="#21A038"/>
<path d="M112.964 4.7489V9.98574H118.637V4.7489H121.464V17.2912H118.637V12.3461H112.964V17.2912H110.137V4.7489H112.964Z" fill="#21A038"/>
<path d="M61.8524 6.78656L64.7103 4.67886H55.1437V17.3442H64.7103V15.2366H57.8748V11.9923H63.7039V9.88463H57.8748V6.78656H61.8524Z" fill="#21A038"/>
<path d="M47.9244 9.61537H44.6037V6.78653H49.9065L52.7643 4.67114H41.8745V17.3365H47.5729C50.7707 17.3365 52.603 15.8865 52.603 13.3577C52.603 10.9481 50.9417 9.61537 47.9244 9.61537ZM47.45 15.2365H44.6037V11.725H47.45C49.1785 11.725 49.989 12.3019 49.989 13.4808C49.989 14.6596 49.1344 15.2365 47.45 15.2365Z" fill="#21A038"/>
<path d="M72.4581 4.67886H67.2514V17.3442H69.9902V13.7577H72.4677C75.7923 13.7577 77.8569 12.0077 77.8569 9.21156C77.8569 6.4154 75.7827 4.67886 72.4581 4.67886ZM72.4005 11.6481H69.9902V6.78656H72.4101C74.1598 6.78656 75.122 7.65002 75.122 9.21733C75.122 10.7846 74.1502 11.6481 72.4005 11.6481Z" fill="#21A038"/>
<path d="M37.1872 14.6019C36.464 14.9949 35.6534 15.1986 34.8306 15.1942C32.3703 15.1942 30.5841 13.4346 30.5841 11.0115C30.5841 8.58843 32.3703 6.82882 34.8306 6.82882C35.7192 6.8129 36.5895 7.08249 37.3139 7.59805L39.271 6.15189L39.1423 6.03843C37.9996 5.03266 36.4708 4.49997 34.7249 4.49997C32.8312 4.49997 31.1123 5.14035 29.885 6.30189C28.6303 7.51058 27.9344 9.1876 27.9644 10.9307C27.9381 12.6903 28.6263 14.3851 29.8716 15.6269C31.1065 16.8346 32.8216 17.5 34.7019 17.5C36.6705 17.5 38.3875 16.8134 39.5533 15.5634L37.7864 14.2596L37.1872 14.6019Z" fill="#21A038"/>
<path d="M19.681 4.27527C20.2001 4.94644 20.6436 5.67948 20.9977 6.46203L10.987 13.8485L6.80507 11.2235V8.0657L10.987 10.6907L19.681 4.27527Z" fill="#21A038"/>
<path d="M2.53739 11.0001C2.53739 10.8581 2.54102 10.7176 2.54829 10.5771L0.013814 10.4505C0.00508949 10.6325 0 10.8159 0 11.0001C0 14.0378 1.22943 16.788 3.2179 18.7782L5.01515 16.9787C3.48472 15.4471 2.53739 13.3324 2.53739 11.0001Z" fill="url(#paint0_linear)"/>
<path d="M10.9858 2.54127C11.1276 2.54127 11.2679 2.54637 11.4082 2.55292L11.5347 0.0138312C11.353 0.00509582 11.1698 0 10.9858 0C7.95186 0 5.20508 1.23096 3.21735 3.2219L5.0146 5.02139C6.5443 3.48979 8.65709 2.54127 10.9858 2.54127Z" fill="url(#paint1_linear)"/>
<path d="M10.9861 19.4595C10.8444 19.4595 10.7041 19.4558 10.5637 19.4485L10.4372 21.9862C10.619 21.9949 10.8022 22 10.9861 22C14.0201 22 16.7669 20.769 18.7546 18.7781L16.9574 16.9786C15.4277 18.5102 13.3156 19.4595 10.9861 19.4595Z" fill="url(#paint2_linear)"/>
<path d="M15.7492 4.01755L17.886 2.44081C16 0.915032 13.6 0 10.9863 0V2.54127C12.7523 2.54127 14.3925 3.08651 15.7492 4.01755Z" fill="url(#paint3_linear)"/>
<path d="M21.9721 11.0001C21.9721 10.3274 21.9117 9.66865 21.7961 9.02951L19.431 10.7744C19.4332 10.8494 19.4339 10.9244 19.4339 11.0001C19.4339 13.4838 18.3594 15.7208 16.6508 17.2699L18.3557 19.1567C20.5769 17.1447 21.9721 14.2358 21.9721 11.0001Z" fill="#21A038"/>
<path d="M10.9855 19.4595C8.50485 19.4595 6.27064 18.3836 4.72349 16.6729L2.83899 18.3799C4.84927 20.6031 7.75454 22 10.9855 22V19.4595Z" fill="url(#paint4_linear)"/>
<path d="M5.32052 4.73017L3.6156 2.84332C1.3952 4.8561 0 7.76499 0 11H2.53811C2.53739 8.51623 3.61196 6.27924 5.32052 4.73017Z" fill="url(#paint5_linear)"/>
</g>
<defs>
<linearGradient id="paint0_linear" x1="3.73086" y1="18.4605" x2="0.951565" y2="10.4367" gradientUnits="userSpaceOnUse">
<stop offset="0.1444" stop-color="#F2E913"/>
<stop offset="0.3037" stop-color="#E7E518"/>
<stop offset="0.5823" stop-color="#CADB26"/>
<stop offset="0.891" stop-color="#A3CD39"/>
</linearGradient>
<linearGradient id="paint1_linear" x1="3.94235" y1="3.67196" x2="11.087" y2="0.952664" gradientUnits="userSpaceOnUse">
<stop offset="0.0592" stop-color="#0FA8E0"/>
<stop offset="0.5385" stop-color="#0099F9"/>
<stop offset="0.9234" stop-color="#0291EB"/>
</linearGradient>
<linearGradient id="paint2_linear" x1="10.27" y1="20.4672" x2="18.3478" y2="18.6438" gradientUnits="userSpaceOnUse">
<stop offset="0.1226" stop-color="#A3CD39"/>
<stop offset="0.2846" stop-color="#86C339"/>
<stop offset="0.8693" stop-color="#21A038"/>
</linearGradient>
<linearGradient id="paint3_linear" x1="10.4554" y1="0.851905" x2="17.3624" y2="2.98037" gradientUnits="userSpaceOnUse">
<stop offset="0.0566" stop-color="#0291EB"/>
<stop offset="0.79" stop-color="#0C8ACB"/>
</linearGradient>
<linearGradient id="paint4_linear" x1="3.47542" y1="18.0711" x2="10.9944" y2="20.8769" gradientUnits="userSpaceOnUse">
<stop offset="0.1324" stop-color="#F2E913"/>
<stop offset="0.2977" stop-color="#EBE716"/>
<stop offset="0.5306" stop-color="#D9E01F"/>
<stop offset="0.8023" stop-color="#BBD62D"/>
<stop offset="0.9829" stop-color="#A3CD39"/>
</linearGradient>
<linearGradient id="paint5_linear" x1="0.944737" y1="11.3082" x2="3.96852" y2="3.452" gradientUnits="userSpaceOnUse">
<stop offset="0.0698" stop-color="#A3CD39"/>
<stop offset="0.2599" stop-color="#81C55F"/>
<stop offset="0.9216" stop-color="#0FA8E0"/>
</linearGradient>
<clipPath id="clip0">
<rect width="137" height="22" fill="white"/>
</clipPath>
</defs>
</svg>
