<svg width="54" height="20" viewBox="0 0 54 20" fill="none" xmlns="http://www.w3.org/2000/svg">
<path d="M28.0798 12.1603V16.0841H25.8861V3.48733H29.9714C33.848 3.48733 35.4952 4.90981 35.4952 7.75196C35.4952 10.6843 33.5652 12.1603 29.9714 12.1603H28.0798ZM28.0798 5.55768V10.0927H30.1306C32.165 10.0927 33.2165 9.40824 33.2165 7.69845C33.2165 6.15202 32.305 5.55768 30.1636 5.55768H28.0798Z" fill="white"/>
<path d="M36.6531 7.71449C37.2324 7.2638 38.2839 6.90607 39.7939 6.90607C42.3555 6.90607 43.6184 7.80462 43.6184 10.1454V16.0832H41.6883V14.4635C41.2683 15.5086 40.1975 16.2268 38.7946 16.2268C37.0238 16.2268 35.9695 15.2015 35.9695 13.4382C35.9695 11.3876 37.4246 10.8101 39.5825 10.8101H41.5648V10.413C41.5648 9.13415 40.969 8.7398 39.7939 8.7398C38.1796 8.7398 37.2516 9.38766 36.6531 10.3426V7.71449ZM41.5648 12.9171V12.1791H39.8296C38.6189 12.1791 38.0396 12.4129 38.0396 13.2241C38.0396 13.9086 38.531 14.3396 39.4425 14.3396C40.829 14.3368 41.4769 13.5284 41.5648 12.9171Z" fill="white"/>
<path d="M44.6347 7.08714H46.9326L49.3349 13.2587L51.2978 7.08714H53.4722L49.9636 17.0389C49.1921 19.1994 48.4014 19.6838 47.2456 19.6838C46.702 19.6838 46.1062 19.5233 45.8427 19.2867V17.3262C46.1062 17.5966 46.5098 17.7769 46.8942 17.7769C47.5256 17.7769 47.9978 17.3459 48.3328 16.1206L44.6347 7.08714Z" fill="white"/>
<path d="M5.81151 7.7248V10.4881L9.38334 12.7838L17.9299 6.32204C17.6279 5.63755 17.249 4.99814 16.8043 4.40943L9.38334 10.0205L5.81151 7.7248Z" fill="white"/>
<path d="M16.5935 10.0918C16.5962 10.1565 16.5962 10.2241 16.5962 10.2889C16.5962 14.3705 13.3593 17.6887 9.38394 17.6887C5.40854 17.6887 2.16892 14.3705 2.16892 10.2889C2.16892 6.20739 5.40579 2.8892 9.3812 2.8892C10.8884 2.8892 12.2886 3.36524 13.4472 4.18211L15.2702 2.80188C13.6613 1.46672 11.6105 0.666748 9.37845 0.666748C4.1978 0.666748 1.52588e-05 4.97645 1.52588e-05 10.2917C1.52588e-05 15.607 4.20055 19.9167 9.37845 19.9167C14.5591 19.9167 18.7569 15.607 18.7569 10.2917C18.7569 9.70304 18.7047 9.12559 18.6059 8.56787L16.5935 10.0918Z" fill="white"/>
</svg>
