<svg width="48" height="48" viewBox="0 0 48 48" fill="none" xmlns="http://www.w3.org/2000/svg">
<rect width="48" height="48" rx="8" fill="#808B95"/>
<path fill-rule="evenodd" clip-rule="evenodd" d="M13.9998 18.998H17.7197L19.0299 13.7575C19.1638 13.2217 19.7067 12.8959 20.2425 13.0298C20.7783 13.1638 21.1041 13.7067 20.9701 14.2425L19.7813 18.998H28.2187L27.0299 14.2425C26.8959 13.7067 27.2217 13.1638 27.7575 13.0298C28.2933 12.8959 28.8362 13.2217 28.9701 13.7575L30.2803 18.998H33.9998C34.6146 18.998 35.0838 19.5475 34.9874 20.1547L32.7654 34.1567C32.6884 34.6424 32.2696 35 31.7778 35H16.2218C15.73 35 15.3112 34.6424 15.2342 34.1567L13.0122 20.1547C12.9158 19.5475 13.385 18.998 13.9998 18.998ZM32.8286 20.998H15.171L17.0756 33H30.924L32.8286 20.998ZM19.499 26H28.501C29.0533 26 29.501 25.5523 29.501 25C29.501 24.4477 29.0533 24 28.501 24H19.499C18.9467 24 18.499 24.4477 18.499 25C18.499 25.5523 18.9467 26 19.499 26ZM19.499 30H28.501C29.0533 30 29.501 29.5523 29.501 29C29.501 28.4477 29.0533 28 28.501 28H19.499C18.9467 28 18.499 28.4477 18.499 29C18.499 29.5523 18.9467 30 19.499 30Z" fill="white"/>
</svg>
