<svg width="24" height="24" viewBox="0 0 24 24" fill="none" xmlns="http://www.w3.org/2000/svg">
<path fill-rule="evenodd" clip-rule="evenodd" d="M11.8832 8.26681L10.2798 15.7544H8.34049L9.94403 8.26681H11.8832ZM20.042 13.1016L21.063 10.2896L21.6502 13.1016H20.042ZM22.2069 15.7544H24L22.4333 8.26681H20.7792C20.4063 8.26681 20.0922 8.48275 19.953 8.8157L17.043 15.7544H19.0798L19.4841 14.6362H21.9718L22.2069 15.7544ZM17.1441 13.3098C17.1525 11.3339 14.4093 11.2243 14.4275 10.3413C14.4335 10.073 14.6896 9.78732 15.2499 9.71427C15.5276 9.67847 16.2939 9.64951 17.1626 10.0492L17.5023 8.46079C17.0355 8.29228 16.4352 8.12988 15.6882 8.12988C13.771 8.12988 12.4223 9.14704 12.4115 10.6048C12.3993 11.6828 13.3751 12.2839 14.1086 12.6429C14.8648 13.0098 15.1183 13.2452 15.1147 13.5731C15.1094 14.0754 14.5114 14.2979 13.9549 14.3062C12.9793 14.3215 12.4139 14.0429 11.9631 13.833L11.6111 15.4745C12.0649 15.6819 12.9013 15.8626 13.7671 15.8718C15.8052 15.8718 17.1381 14.8666 17.1441 13.3098ZM9.11208 8.26681L5.96983 15.7544H3.92006L2.37362 9.77872C2.27995 9.41144 2.19822 9.27626 1.91312 9.12114C1.44678 8.86794 0.676846 8.63133 0 8.48421L0.0457447 8.26681H3.34577C3.76622 8.26681 4.14426 8.5462 4.24042 9.0299L5.05726 13.3629L7.07469 8.26681H9.11208Z" fill="#1B1F6C"/>
</svg>
