<svg width="28" height="18" viewBox="0 0 28 18" fill="none" xmlns="http://www.w3.org/2000/svg">
<g opacity="0.75">
<path d="M14.4807 7.37707C14.465 8.63064 15.6052 9.33018 16.461 9.74655C17.342 10.173 17.6383 10.4466 17.6349 10.8283C17.6282 11.4126 16.9316 11.6678 16.2805 11.6806C15.1436 11.698 14.4813 11.3751 13.9573 11.1305L13.5502 13.0377C14.0776 13.2795 15.0537 13.4905 16.0663 13.5C18.4423 13.5 19.9969 12.3326 20.0054 10.5222C20.0144 8.22771 16.8129 8.09787 16.8343 7.07095C16.8422 6.75979 17.1407 6.42737 17.7946 6.34343C18.1185 6.3009 19.0125 6.26788 20.0256 6.73517L20.4231 4.88838C19.7454 4.63391 19.0273 4.50237 18.3029 4.5C16.0668 4.5 14.4937 5.68362 14.4796 7.37707H14.4807ZM24.2419 4.65894C24.0354 4.65692 23.8329 4.71672 23.6609 4.83058C23.4889 4.94443 23.3552 5.10709 23.2771 5.29748L19.8845 13.364H22.2589L22.7317 12.0645H25.6329L25.9073 13.364H28L26.1738 4.65894H24.2419ZM24.5737 7.00939L25.259 10.2782H23.3822L24.5737 7.00939ZM11.602 4.65894L9.73028 13.364H11.9928L13.8639 4.65894H11.602ZM8.25494 4.65894L5.89968 10.5843L4.94779 5.54595C4.83534 4.98632 4.39454 4.65894 3.90426 4.65894H0.0562249L0 4.91189C0.790522 5.08258 1.68675 5.35959 2.23213 5.65228C2.56498 5.83248 2.66 5.98806 2.76964 6.4173L4.5739 13.364H6.96514L10.631 4.65894H8.25494Z" fill="url(#paint0_linear_2499_12177)"/>
</g>
<defs>
<linearGradient id="paint0_linear_2499_12177" x1="-0.0125413" y1="4.725" x2="28.0179" y2="4.49789" gradientUnits="userSpaceOnUse">
<stop stop-color="#989898"/>
<stop offset="1" stop-color="#AFAFAF"/>
</linearGradient>
</defs>
</svg>
